<svg width="169" height="87" viewBox="0 0 169 87" fill="none" xmlns="http://www.w3.org/2000/svg">
<path d="M11.4 0.779297H2.40002V42.5373H11.4V0.779297Z" fill="#D2953D"/>
<path d="M8.50002 0.779297H2.40002V42.5373H8.50002V0.779297Z" fill="#EDC75E"/>
<path d="M19.1 5.35156H10.1V47.1096H19.1V5.35156Z" fill="#D2953D"/>
<path d="M16.2 5.35156H10.1V47.1096H16.2V5.35156Z" fill="#EDC75E"/>
<path d="M31.4303 1.82512L22.5536 0.31543L15.768 41.5014L24.6447 43.011L31.4303 1.82512Z" fill="#D2953D"/>
<path d="M28.5444 1.37919L22.528 0.355957L15.7423 41.5419L21.7588 42.5651L28.5444 1.37919Z" fill="#EDC75E"/>
<path d="M34.8559 6.58717L25.8577 6.78564L26.7498 48.5353L35.748 48.3368L34.8559 6.58717Z" fill="#D2953D"/>
<path d="M31.9555 6.61891L25.8567 6.75342L26.7487 48.5031L32.8474 48.3686L31.9555 6.61891Z" fill="#EDC75E"/>
<path d="M43.4555 2.5231L34.4573 2.72168L35.3498 44.4713L44.348 44.2728L43.4555 2.5231Z" fill="#D2953D"/>
<path d="M40.5551 2.55436L34.4563 2.68896L35.3489 44.4386L41.4477 44.304L40.5551 2.55436Z" fill="#EDC75E"/>
<path d="M52.61 9.59662L43.6586 8.64746L39.3924 50.18L48.3438 51.1291L52.61 9.59662Z" fill="#D2953D"/>
<path d="M49.709 9.344L43.642 8.70068L39.3758 50.2332L45.4428 50.8765L49.709 9.344Z" fill="#EDC75E"/>
<path d="M44.6 29.939C44.6 33.1902 36.2 35.8318 25.9 35.8318C15.6 35.8318 7.2 33.1902 7.2 29.939H0L4.2 86.0227H47.7L51.9 29.939H44.6Z" fill="#DB5955"/>
<path d="M146.9 71.2903C147.6 68.0391 147.9 64.6862 147.9 61.2318C147.9 34.7139 130.9 16.4258 104.8 16.4258C78.7001 16.4258 47.2001 34.7139 47.2001 61.2318C47.2001 64.6862 36.6 68.0391 37.3 71.2903H146.9Z" fill="#935A40"/>
<path d="M164.6 54.2214C165.9 53.7134 166.8 52.3926 166.8 50.8686C166.8 48.8366 165.2 47.2109 163.2 47.2109C161.2 47.2109 159.6 48.8366 159.6 50.8686C159.6 50.9702 159.6 51.0718 159.7 51.1734H127.9V57.1678H159.7C159.7 57.2694 159.6 57.371 159.6 57.4726C159.6 59.5047 161.2 61.1303 163.2 61.1303C165.2 61.1303 166.8 59.5047 166.8 57.4726C166.8 56.0502 165.9 54.831 164.6 54.2214Z" fill="white"/>
<path d="M151.1 54.2215C151.1 62.5528 136.1 69.3601 127.9 69.3601C119.7 69.3601 113 62.5528 113 54.2215C113 45.8903 119.7 39.083 127.9 39.083C136.1 39.083 151.1 45.8903 151.1 54.2215Z" fill="#BC7253"/>
<path d="M67.3 47.3125C67.3 47.3125 56.9 52.5957 59 59.3014C60.4 63.7718 92.4 61.6382 93.8 57.2694C95.2 53.0021 67.6 51.9862 67.6 51.9862L67.3 47.3125Z" fill="#BC7253"/>
<path d="M52.8 75.3544C56.5555 75.3544 59.6 72.2611 59.6 68.4455C59.6 64.6298 56.5555 61.5366 52.8 61.5366C49.0445 61.5366 46 64.6298 46 68.4455C46 72.2611 49.0445 75.3544 52.8 75.3544Z" fill="#DB5955"/>
<path d="M51.2 70.5793C53.4643 70.5793 55.3 68.7143 55.3 66.4137C55.3 64.1131 53.4643 62.248 51.2 62.248C48.9356 62.248 47.1 64.1131 47.1 66.4137C47.1 68.7143 48.9356 70.5793 51.2 70.5793Z" fill="#DD7260"/>
<path d="M67.9999 69.3597C67.9999 72.6109 65.3999 75.3542 62.0999 75.3542C58.7999 75.3542 56.2 72.7125 56.2 69.3597C56.2 66.1085 58.7999 63.3652 62.0999 63.3652C65.3999 63.3652 67.9999 66.1085 67.9999 69.3597Z" fill="#D2953D"/>
<path d="M60.8 71.6965C62.6778 71.6965 64.2 70.1499 64.2 68.2421C64.2 66.3342 62.6778 64.7876 60.8 64.7876C58.9223 64.7876 57.4 66.3342 57.4 68.2421C57.4 70.1499 58.9223 71.6965 60.8 71.6965Z" fill="#EDC75E"/>
<path d="M74.8 75.3544C78.5555 75.3544 81.6 72.2611 81.6 68.4455C81.6 64.6298 78.5555 61.5366 74.8 61.5366C71.0445 61.5366 68 64.6298 68 68.4455C68 72.2611 71.0445 75.3544 74.8 75.3544Z" fill="#DB5955"/>
<path d="M73.2 70.5793C75.4643 70.5793 77.3 68.7143 77.3 66.4137C77.3 64.1131 75.4643 62.248 73.2 62.248C70.9356 62.248 69.1 64.1131 69.1 66.4137C69.1 68.7143 70.9356 70.5793 73.2 70.5793Z" fill="#DD7260"/>
<path d="M84.0999 75.3542C87.3584 75.3542 89.9999 72.6703 89.9999 69.3597C89.9999 66.049 87.3584 63.3652 84.0999 63.3652C80.8415 63.3652 78.2 66.049 78.2 69.3597C78.2 72.6703 80.8415 75.3542 84.0999 75.3542Z" fill="#D2953D"/>
<path d="M82.8 71.6965C84.6778 71.6965 86.2 70.1499 86.2 68.2421C86.2 66.3342 84.6778 64.7876 82.8 64.7876C80.9223 64.7876 79.4 66.3342 79.4 68.2421C79.4 70.1499 80.9223 71.6965 82.8 71.6965Z" fill="#EDC75E"/>
<path d="M96.8 75.3544C100.556 75.3544 103.6 72.2611 103.6 68.4455C103.6 64.6298 100.556 61.5366 96.8 61.5366C93.0445 61.5366 90 64.6298 90 68.4455C90 72.2611 93.0445 75.3544 96.8 75.3544Z" fill="#DB5955"/>
<path d="M95.1 70.5793C97.3644 70.5793 99.2 68.7143 99.2 66.4137C99.2 64.1131 97.3644 62.248 95.1 62.248C92.8356 62.248 91 64.1131 91 66.4137C91 68.7143 92.8356 70.5793 95.1 70.5793Z" fill="#DD7260"/>
<path d="M106.1 75.3542C109.358 75.3542 112 72.6703 112 69.3597C112 66.049 109.358 63.3652 106.1 63.3652C102.841 63.3652 100.2 66.049 100.2 69.3597C100.2 72.6703 102.841 75.3542 106.1 75.3542Z" fill="#D2953D"/>
<path d="M104.7 71.6965C106.578 71.6965 108.1 70.1499 108.1 68.2421C108.1 66.3342 106.578 64.7876 104.7 64.7876C102.822 64.7876 101.3 66.3342 101.3 68.2421C101.3 70.1499 102.822 71.6965 104.7 71.6965Z" fill="#EDC75E"/>
<path d="M118.8 75.3544C122.556 75.3544 125.6 72.2611 125.6 68.4455C125.6 64.6298 122.556 61.5366 118.8 61.5366C115.044 61.5366 112 64.6298 112 68.4455C112 72.2611 115.044 75.3544 118.8 75.3544Z" fill="#DB5955"/>
<path d="M117.1 70.5793C119.364 70.5793 121.2 68.7143 121.2 66.4137C121.2 64.1131 119.364 62.248 117.1 62.248C114.836 62.248 113 64.1131 113 66.4137C113 68.7143 114.836 70.5793 117.1 70.5793Z" fill="#DD7260"/>
<path d="M133.9 69.3597C133.9 72.6109 131.3 75.3542 128 75.3542C124.8 75.3542 122.1 72.7125 122.1 69.3597C122.1 66.1085 124.7 63.3652 128 63.3652C131.3 63.4668 133.9 66.1085 133.9 69.3597Z" fill="#D2953D"/>
<path d="M126.7 71.6965C128.578 71.6965 130.1 70.1499 130.1 68.2421C130.1 66.3342 128.578 64.7876 126.7 64.7876C124.822 64.7876 123.3 66.3342 123.3 68.2421C123.3 70.1499 124.822 71.6965 126.7 71.6965Z" fill="#EDC75E"/>
<path d="M140.7 75.3544C144.456 75.3544 147.5 72.2611 147.5 68.4455C147.5 64.6298 144.456 61.5366 140.7 61.5366C136.944 61.5366 133.9 64.6298 133.9 68.4455C133.9 72.2611 136.944 75.3544 140.7 75.3544Z" fill="#DB5955"/>
<path d="M139.1 70.5793C141.364 70.5793 143.2 68.7143 143.2 66.4137C143.2 64.1131 141.364 62.248 139.1 62.248C136.836 62.248 135 64.1131 135 66.4137C135 68.7143 136.836 70.5793 139.1 70.5793Z" fill="#DD7260"/>
<path d="M150 75.3542C153.258 75.3542 155.9 72.6703 155.9 69.3597C155.9 66.049 153.258 63.3652 150 63.3652C146.742 63.3652 144.1 66.049 144.1 69.3597C144.1 72.6703 146.742 75.3542 150 75.3542Z" fill="#D2953D"/>
<path d="M148.7 71.6965C150.578 71.6965 152.1 70.1499 152.1 68.2421C152.1 66.3342 150.578 64.7876 148.7 64.7876C146.822 64.7876 145.3 66.3342 145.3 68.2421C145.3 70.1499 146.822 71.6965 148.7 71.6965Z" fill="#EDC75E"/>
<path d="M154 86.3274H37.1C29 86.3274 22.4 79.6218 22.4 71.3921H168.7C168.7 79.6218 162.1 86.3274 154 86.3274Z" fill="white"/>
</svg>
