<svg width="96" height="79" viewBox="0 0 96 79" fill="none" xmlns="http://www.w3.org/2000/svg">
<path d="M51.7361 46.4461C41.8534 51.419 30.7434 53.8572 19.4841 53.2184C13.0502 52.8534 8.09719 47.2401 8.51738 40.7242C8.93756 34.2084 14.5295 29.1431 20.9634 29.5081C35.306 30.2841 49.1417 23.3221 57.2597 11.2442C60.8881 5.81592 68.2335 4.37137 73.5632 7.99389C78.8929 11.6164 80.2522 19.0381 76.6238 24.4664C70.1842 34.0111 61.6187 41.4733 51.7361 46.4461Z" fill="#EDC75E"/>
<path d="M52.4916 47.9946C41.0846 53.733 28.3649 56.5305 15.3664 55.7544C9.82779 55.3895 5.62715 50.6377 5.90449 44.9837C6.31547 39.375 11.0492 35.0805 16.6338 35.3097C35.4842 36.4056 53.8071 27.1881 64.4172 11.2719C67.5012 6.5693 73.815 5.30623 78.4777 8.47511C83.0966 11.5535 84.2872 17.932 81.1134 22.6798C73.813 33.6674 63.8087 42.3015 52.4916 47.9946Z" fill="#E18668"/>
<path d="M52.5064 48.0215C63.9095 42.2874 73.8202 33.7036 81.117 22.7216C81.9774 21.5014 82.437 20.1453 82.7629 18.7438C82.0552 17.9747 81.3015 17.3411 80.3682 16.7979C74.8585 13.4933 67.6464 15.4324 64.3321 21.0367C56.9766 33.5107 43.5875 41.3686 29.2431 41.494C22.7642 41.4894 17.531 46.8211 17.4696 53.3772C17.4611 54.2815 17.4986 55.0501 17.6697 55.8641C29.8195 56.2797 41.7318 53.4397 52.5064 48.0215Z" fill="#DB5955"/>
<path d="M58.3757 60.1117C48.4931 65.0845 37.3831 67.5228 26.1237 66.8839C19.6898 66.5189 14.7368 60.9056 15.157 54.3898C15.5772 47.874 21.1692 42.8086 27.603 43.1736C41.9456 43.9497 55.7814 36.9877 63.8994 24.9097C67.5278 19.4814 74.8731 18.0369 80.2029 21.6594C85.5326 25.2819 86.8919 32.7036 83.2634 38.1319C76.8238 47.6766 68.2584 55.1388 58.3757 60.1117Z" fill="#EDC75E"/>
<path d="M46.4683 31.8673L45.1057 29.0516C44.1145 29.5507 43.1233 30.0498 42.1321 30.5488L43.4947 33.3645C43.8903 34.1819 44.8288 34.5001 45.6398 34.0918C46.5408 33.6381 46.8639 32.6847 46.4683 31.8673Z" fill="#DB5955"/>
<path d="M23.3885 39.0193C24.1996 38.6109 24.5226 37.6575 24.127 36.84L23.3797 35.2959C22.1687 35.3408 21.0016 35.4766 19.7466 35.4307L21.1093 38.2464C21.639 39.1094 22.5775 39.4276 23.3885 39.0193Z" fill="#DB5955"/>
<path d="M54.5269 27.8214C55.3378 27.4132 55.6608 26.4599 55.2652 25.6425L53.9907 23.0088C53.1315 23.7803 52.2283 24.4609 51.2812 25.0508L52.292 27.1396C52.6876 27.9569 53.716 28.2297 54.5269 27.8214Z" fill="#DB5955"/>
<path d="M35.4271 37.4006C36.238 36.9923 36.561 36.039 36.1655 35.2216L35.1546 33.1328C34.0757 33.4502 32.9967 33.7676 31.9177 34.085L33.1923 36.7187C33.6779 37.4907 34.6163 37.8088 35.4271 37.4006Z" fill="#DB5955"/>
<path d="M63.1124 19.0967C63.9234 18.6884 64.2465 17.735 63.8509 16.9176L62.4882 14.1019C61.7168 15.0551 60.9454 16.0083 60.174 16.9615L60.9213 18.5056C61.363 19.1868 62.3015 19.505 63.1124 19.0967Z" fill="#DB5955"/>
<path d="M46.3378 35.297C44.9916 35.9734 43.4723 36.0624 42.1365 35.6096C41.0241 35.1569 39.7239 35.6979 39.1771 36.8719C38.5843 38.1814 37.3696 39.129 35.9358 39.6246C34.502 40.1203 32.9847 39.9835 31.7408 39.2597C30.6743 38.6715 29.3762 38.9866 28.6081 39.9346C27.838 41.1084 26.4459 41.9203 24.9704 42.0998C23.4948 42.2792 21.9796 41.9165 20.8713 41.0121C20.1617 40.4694 20.0824 39.3852 20.6251 38.6629C21.1677 37.9406 22.2405 37.8512 22.9501 38.3939C23.3487 38.7556 23.9727 38.8917 24.5988 38.8018C25.225 38.712 25.7196 38.3511 25.9909 37.9899C27.7545 35.6425 30.8434 34.8772 33.3312 36.3248C33.8195 36.6414 34.3997 36.6871 34.982 36.5069C35.5643 36.3267 35.9692 36.0109 36.2426 35.4239C37.5616 32.8502 40.5211 31.5879 43.2364 32.584C44.305 32.9463 45.6511 32.2698 45.9287 31.2311C46.8032 28.4311 49.5874 26.8073 52.3966 27.3066C52.887 27.3974 53.5132 27.3076 54.0078 26.9466C54.5024 26.5856 54.8197 26.089 54.8697 25.5018C55.2538 22.6111 57.8188 20.5354 60.6322 20.5829C61.2124 20.6286 61.7508 20.358 62.2016 19.9067C62.6524 19.4554 62.8361 18.9134 62.8862 18.3262C62.8945 17.4228 63.6167 16.6103 64.5099 16.6111C65.4032 16.6118 66.2005 17.3353 66.1921 18.2387C66.2234 19.6843 65.5848 21.1292 64.5475 22.2125C63.5102 23.2958 62.0764 23.7914 60.6468 23.8354C59.3966 23.7891 58.4053 24.7369 58.2153 25.9564C58.0233 27.4018 57.2073 28.7111 55.9488 29.5683C54.6903 30.4255 53.3024 30.7857 51.831 30.5134C50.6267 30.3316 49.5039 31.0083 49.0906 32.2276C48.5877 33.492 47.5942 34.6656 46.3378 35.297Z" fill="#EDC75E"/>
</svg>
