<svg width="286" height="295" viewBox="0 0 286 295" fill="none" xmlns="http://www.w3.org/2000/svg">
<path d="M216.055 243.476C213.315 243.476 213.315 247.837 216.055 247.837C218.795 247.745 218.795 243.476 216.055 243.476Z" fill="#FFF1CE"/>
<path d="M54.0552 204.867C51.3149 204.867 51.3149 209.229 54.0552 209.229C56.7954 209.136 56.7954 204.867 54.0552 204.867Z" fill="#FFF1CE"/>
<path d="M283.581 288.213C282.394 288.492 281.206 289.791 280.476 290.44C279.106 291.647 277.644 292.575 276 293.41C276.548 294.245 277.827 294.709 278.74 294.895C279.745 295.081 280.658 294.895 281.663 294.709C282.12 294.617 282.577 294.431 283.033 294.245C284.403 293.41 286.778 289.976 285.043 288.584C284.586 288.213 284.038 288.12 283.581 288.213Z" fill="#7CA661"/>
<path d="M150.016 231.295H149.925C149.377 231.388 148.92 232.037 149.012 232.594C149.012 233.151 149.377 233.801 149.925 233.893H150.016C150.839 234.079 151.661 233.522 151.661 232.594C151.661 231.666 150.839 231.202 150.016 231.295Z" fill="#FFF1CE"/>
<path d="M165.658 4.63944C164.654 3.71142 164.197 2.04097 163.74 0.648926C163.009 1.39135 162.096 1.85537 161 1.94817C161.457 3.98983 162.644 5.84588 164.471 6.7739C164.562 6.12429 165.11 5.10345 165.658 4.63944Z" fill="#AEDC90"/>
<path d="M57.8496 118.506C55.3835 118.506 55.3835 122.404 57.8496 122.404C60.3158 122.404 60.3158 118.506 57.8496 118.506Z" fill="#FFF1CE"/>
<path d="M1.84964 134.762C-0.616547 134.762 -0.616547 138.66 1.84964 138.66C4.31583 138.66 4.31583 134.762 1.84964 134.762Z" fill="#FFF1CE"/>
<path d="M137.129 121.012L134.754 118.506C134.754 118.506 134.389 124.539 129 126.766L131.192 128.436C131.192 128.436 135.759 126.58 137.129 121.012Z" fill="#AEDC90"/>
<path d="M282.85 96.1538C280.383 96.1538 280.383 100.052 282.85 100.052C285.316 100.052 285.316 96.1538 282.85 96.1538Z" fill="#FFF1CE"/>
<path d="M45.7544 79.9027C45.1151 79.253 44.293 78.8818 43.3796 78.8818C42.4662 78.8818 41.5528 79.253 41.0047 79.9027C40.4567 80.5523 40 81.4803 40 82.3155C40 83.2436 40.3654 84.1716 41.0047 84.7284C41.6441 85.378 42.4662 85.7492 43.3796 85.7492C44.293 85.7492 45.2064 85.378 45.7544 84.7284C46.3938 84.1716 46.7592 83.1508 46.7592 82.3155C46.6678 81.4803 46.3938 80.5523 45.7544 79.9027Z" fill="#FFF1CE"/>
<path d="M30.9352 230.267C29.3824 231.195 27.921 232.03 26.3682 232.958C25.4548 233.515 24.5414 233.979 23.902 234.814C23.1713 235.65 22.4406 237.134 23.628 237.877C24.8154 238.619 27.0076 237.413 28.0123 236.763C29.0171 236.114 30.0218 235.371 30.6612 234.258C31.94 232.216 30.7525 230.36 30.9352 230.267Z" fill="#7CA661"/>
<path d="M168.754 206.904C168.115 206.254 167.293 205.883 166.38 205.883C165.466 205.883 164.553 206.254 164.005 206.904C163.457 207.553 163 208.481 163 209.317C163 210.245 163.365 211.173 164.005 211.729C164.644 212.379 165.466 212.75 166.38 212.75C167.293 212.75 168.206 212.379 168.754 211.729C169.394 211.173 169.759 210.152 169.759 209.317C169.668 208.481 169.394 207.553 168.754 206.904Z" fill="#FFF1CE"/>
<path d="M177.754 141.879C177.115 141.23 176.293 140.858 175.38 140.858C174.466 140.858 173.553 141.23 173.005 141.879C172.457 142.529 172 143.457 172 144.292C172 145.22 172.365 146.148 173.005 146.705C173.644 147.355 174.466 147.726 175.38 147.726C176.293 147.726 177.206 147.355 177.754 146.705C178.394 146.148 178.759 145.127 178.759 144.292C178.668 143.457 178.394 142.529 177.754 141.879Z" fill="#FFF1CE"/>
<path d="M245.754 124.607C245.115 123.958 244.293 123.586 243.38 123.586C242.466 123.586 241.553 123.958 241.005 124.607C240.457 125.257 240 126.185 240 127.02C240 127.948 240.365 128.876 241.005 129.433C241.644 130.083 242.466 130.454 243.38 130.454C244.293 130.454 245.206 130.083 245.754 129.433C246.394 128.876 246.759 127.855 246.759 127.02C246.668 126.185 246.394 125.257 245.754 124.607Z" fill="#FFF1CE"/>
<path d="M44.7544 268.88C44.1151 268.231 43.293 267.859 42.3796 267.859C41.4662 267.859 40.5528 268.231 40.0047 268.88C39.4567 269.53 39 270.458 39 271.293C39 272.221 39.3654 273.149 40.0047 273.706C40.6441 274.356 41.4662 274.727 42.3796 274.727C43.293 274.727 44.2064 274.356 44.7544 273.706C45.3938 273.149 45.7592 272.128 45.7592 271.293C45.6678 270.458 45.3938 269.53 44.7544 268.88Z" fill="#FFF1CE"/>
<path d="M73.1511 113.279C73.6078 115.599 75.252 117.455 77.2614 118.661C79.1796 119.775 81.2804 119.961 83.4726 119.868C83.5639 119.868 83.6552 119.868 83.7466 119.868C83.7466 119.775 83.7466 119.682 83.7466 119.589C83.5639 116.62 82.5592 113.836 80.9151 111.33C79.3623 109.01 77.2614 107.154 75.1606 105.298C73.6078 107.618 72.6031 110.68 73.1511 113.279Z" fill="#AEDC90"/>
<path d="M73.1511 113.279C73.6078 115.599 75.252 117.455 77.2614 118.661C79.1796 119.775 81.2804 119.961 83.4726 119.868C83.5639 119.868 83.6552 119.868 83.7466 119.868C74.2472 114.485 75.1606 105.298 75.1606 105.298C73.6078 107.618 72.6031 110.68 73.1511 113.279Z" fill="#7CA661"/>
<path d="M75.5258 109.938C75.9825 112.165 77.2613 114.393 78.7228 116.063C80.0015 117.548 81.5543 118.94 83.3811 119.868C83.4725 119.868 83.5638 119.868 83.6552 119.868C83.6552 119.775 83.6552 119.682 83.6552 119.59C81.9197 118.569 80.2756 117.455 78.9968 115.785C78.2661 114.857 77.6267 113.929 77.0786 112.908C76.5306 111.887 76.2566 110.866 75.8912 109.845C75.7999 109.66 75.5258 109.753 75.5258 109.938Z" fill="#39700B"/>
<path d="M253.595 60.4464C253.139 62.7664 251.495 64.6225 249.485 65.8289C247.567 66.9426 245.466 67.1281 243.274 67.0353C243.183 67.0353 243.091 67.0353 243 67.0353C243 66.9425 243 66.8497 243 66.7569C243.183 63.7873 244.187 61.0032 245.832 58.4975C247.384 56.1774 249.485 54.3214 251.586 52.4653C253.139 54.7854 254.143 57.8479 253.595 60.4464Z" fill="#AEDC90"/>
<path d="M253.595 60.4464C253.139 62.7664 251.495 64.6225 249.485 65.8289C247.567 66.9426 245.466 67.1281 243.274 67.0353C243.183 67.0353 243.091 67.0353 243 67.0353C252.499 61.6528 251.586 52.4653 251.586 52.4653C253.139 54.7854 254.143 57.8479 253.595 60.4464Z" fill="#7CA661"/>
<path d="M251.221 57.1056C250.764 59.3329 249.485 61.5601 248.024 63.2306C246.745 64.7154 245.192 66.1074 243.365 67.0355C243.274 67.0355 243.183 67.0355 243.091 67.0355C243.091 66.9427 243.091 66.8499 243.091 66.7571C244.827 65.7362 246.471 64.6226 247.75 62.9522C248.481 62.0241 249.12 61.0961 249.668 60.0753C250.216 59.0544 250.49 58.0336 250.855 57.0128C250.947 56.8272 251.221 56.92 251.221 57.1056Z" fill="#39700B"/>
</svg>
