<svg width="40" height="61" viewBox="0 0 40 61" fill="none" xmlns="http://www.w3.org/2000/svg">
<path d="M0 0.609375C2.28351 11.9313 8.95134 21.6756 15.4365 31.1414C17.994 34.8535 20.7342 39.4937 24.4792 42.185C25.5753 40.7929 20.6429 33.8327 19.7295 32.2551C17.72 28.6358 15.6192 25.1093 13.427 21.5828C9.13403 14.5298 4.65835 7.56957 0 0.609375Z" fill="#7CA661"/>
<path d="M15.0713 24.5523C13.2445 17.7777 12.2398 10.7247 9.4082 4.22852C17.5375 15.4576 23.4746 27.8932 26.5802 42.092C24.388 40.9783 22.7439 40.2359 21.2824 38.1943C18.1769 34.2966 16.3501 29.378 15.0713 24.5523Z" fill="#AEDC90"/>
<path d="M2.83167 21.6753C5.38919 26.3154 8.49477 30.5843 12.3311 34.2036C14.7972 36.5237 22.9265 43.4839 26.4888 42.1847C23.8399 38.287 18.2682 34.1109 14.7972 31.0484C10.961 27.8003 6.94198 24.645 2.83167 21.6753Z" fill="#AEDC90"/>
<path d="M40.0069 46.1755C40.1896 54.5277 28.5894 59.2606 22.1043 57.0334C19.2727 56.1054 17.4459 53.8781 17.9026 49.9804C18.3593 46.1755 20.0948 42.4634 22.9263 40.0505C25.8492 37.6376 29.8682 36.524 33.5218 37.7304C37.0841 38.9369 39.9156 42.3706 40.0069 46.1755Z" fill="#EA7273"/>
<path d="M40.0069 46.1755C40.1896 54.5278 28.5894 59.2607 22.1042 57.0334C22.2869 56.9406 22.561 56.8478 22.835 56.6622C25.9405 55.5486 28.9548 55.2702 31.7863 53.3213C35.0746 51.0012 37.4494 46.8251 36.3533 42.9274C35.8053 40.9786 34.5265 39.4009 33.4304 37.7305C37.084 38.9369 39.9156 42.3706 40.0069 46.1755Z" fill="#EA6061"/>
<path d="M20.369 51.6508C20.5517 51.9292 20.7343 52.2077 21.0084 52.3933C21.3737 52.6717 21.9218 52.7645 22.4698 52.6717C23.8399 52.4861 24.936 51.4652 25.3927 50.166C25.8494 48.8668 25.6667 47.3819 25.0273 46.2683C24.1139 44.5978 22.0131 43.7626 20.7343 45.5259C19.4556 47.1035 19.3642 49.8876 20.369 51.6508Z" fill="#EA8889"/>
<path d="M27.4933 42.092C27.2193 41.628 26.6712 41.4424 26.1232 41.4424C25.7578 41.4424 25.2098 41.5352 24.9357 41.8136C24.5704 42.092 24.2964 42.6488 24.479 43.2056C24.5704 43.8553 24.9358 44.3193 25.5751 44.5049C26.1232 44.6905 26.7626 44.5977 27.2193 44.1337C27.7673 43.6697 27.8586 42.7416 27.4933 42.092Z" fill="#EA8889"/>
<path d="M26.8539 45.062C26.8539 45.062 26.7626 45.062 26.6712 45.062H26.5799C26.4885 45.062 26.3972 45.062 26.3058 45.062C26.3058 45.062 26.2145 45.062 26.2145 45.1548C25.9405 45.2476 25.8492 45.526 25.7578 45.8044C25.7578 45.99 25.7578 46.1756 25.7578 46.3612V46.4541C25.8492 46.6397 26.0318 46.8253 26.2145 46.9181C26.3059 47.0109 26.4885 47.0109 26.5799 47.0109C27.1279 47.1965 27.676 46.7325 27.7673 46.0828C27.8586 45.6188 27.4019 45.062 26.8539 45.062Z" fill="#EA8889"/>
<path d="M32.517 54.4348C32.6997 55.2701 34.1611 55.1773 34.8918 55.3629C35.8966 55.6413 36.536 56.6621 36.536 57.6829C36.536 58.6109 36.0793 59.539 36.536 60.2814C36.9927 60.931 37.9974 60.931 38.7281 60.8382C37.9974 60.8382 37.2667 60.1886 37.084 59.4462C36.9013 58.7038 37.2667 57.8685 37.358 57.1261C37.5407 56.0125 37.2667 54.7132 36.536 53.878C35.7139 53.0428 32.6997 52.1148 32.4257 53.9708C32.517 54.2492 32.517 54.342 32.517 54.4348Z" fill="#EA6061"/>
<path d="M37.815 47.5676C37.541 48.0316 37.541 48.4956 37.3583 48.9596C37.1756 49.6093 36.8103 50.2589 36.4449 50.9085C35.7142 52.0221 34.8008 52.7646 33.7047 53.5998C33.4307 53.7854 33.6134 54.2494 33.9787 54.0638C35.2575 53.507 36.2622 52.3933 36.9929 51.2797C37.6323 50.3517 38.5457 48.6812 38.1804 47.5676C38.089 47.382 37.9063 47.4748 37.815 47.5676Z" fill="white"/>
<path d="M37.9062 43.7622C37.8149 43.6694 37.7235 43.6694 37.6322 43.6694H37.5409C37.4495 43.6694 37.4495 43.6694 37.4495 43.7622C37.2668 44.1334 37.5409 44.4119 37.7235 44.7831C37.9062 45.2471 37.9062 45.7111 37.9062 46.2679C37.9062 46.6391 38.4543 46.6391 38.4543 46.2679C38.4543 45.3399 38.2716 44.5975 37.9062 43.7622Z" fill="white"/>
</svg>
