<svg width="91" height="63" viewBox="0 0 91 63" fill="none" xmlns="http://www.w3.org/2000/svg">
<path d="M14.4153 47.637C17.1267 45.9599 20.2429 44.7124 23.3349 43.6481C28.6675 41.6814 33.8974 39.7939 39.2299 37.8272C51.6343 33.2952 64.232 28.6968 77.3014 26.1236C81.2754 25.3684 84.621 23.7793 88.6012 23.6782C65.9253 35.4646 40.3551 43.303 14.4153 47.637Z" fill="#7CA661"/>
<path d="M9.59599 49.2421C17.4282 45.8436 25.0246 42.1319 32.4879 38.0279C35.8721 36.1613 39.3589 34.2155 42.2835 31.631C45.4136 28.888 47.8906 25.4936 50.6821 22.5167C55.7152 17.2343 61.8851 13.1377 68.0428 9.13281C67.1201 15.4532 63.9123 20.8956 59.4411 25.415C54.8791 29.9217 49.4525 33.2804 43.9714 36.3512C40.8833 38.072 37.8073 39.701 34.5076 40.9251C32.5857 41.4994 14.1655 49.5961 9.59599 49.2421Z" fill="#AEDC90"/>
<path d="M24.0506 42.556C24.0506 42.556 23.2842 44.8765 24.263 45.8523C24.263 45.8523 6.35044 52.9808 2.32722 51.3025C-1.6054 49.6368 0.815951 47.3593 3.34084 47.803C5.86573 48.2466 19.3039 44.9776 24.0506 42.556Z" fill="white"/>
</svg>
