<svg width="124" height="89" viewBox="0 0 124 89" fill="none" xmlns="http://www.w3.org/2000/svg">
<path d="M67.7118 55.1017C58.8435 53.2112 52.0513 50.4314 43.9857 45.3915C36.6278 40.7499 35.7529 32.2402 42.2089 26.5134C42.2456 26.4198 42.3753 26.3642 42.3753 26.3642C43.2077 25.618 44.2654 25.3987 45.3256 25.7239C57.3771 29.1345 68.8214 33.8183 79.8448 39.8513C80.8316 40.3639 81.4119 41.3622 81.5467 42.3955C81.51 42.4892 81.5663 42.6209 81.5663 42.6209C82.5906 51.3004 76.1713 56.9335 67.7118 55.1017Z" fill="#EADFD1"/>
<path d="M81.7557 42.6439C81.7924 42.5504 81.7361 42.419 81.7361 42.419C81.6382 41.2947 81.0217 40.3921 80.0359 39.8808C69.0235 33.862 57.5906 29.1893 45.5512 25.7868C45.2723 25.6728 44.8639 25.6143 44.5116 25.6872C44.475 25.7806 44.475 25.7807 44.4383 25.8741C44.2036 27.2962 44.1181 28.8877 44.2553 30.4618C44.2969 31.4547 44.8205 32.3193 45.5837 32.8481C57.0512 41.0047 64.952 44.2338 78.3023 46.2203C79.2122 46.3753 80.083 46.0806 80.7849 45.3916C81.1175 45.0938 81.4868 44.7026 81.8195 44.4048C81.8536 43.7682 81.7582 43.1871 81.7557 42.6439Z" fill="#D1C3B4"/>
<path d="M51.3453 19.5302C47.8111 18.0845 43.8294 20.2564 43.3084 24.0613C43.0736 25.4855 42.9881 27.0795 43.1253 28.6559C43.167 29.6503 43.6908 30.5162 44.4545 31.0458C55.9287 39.2146 63.8341 42.4486 77.1922 44.4381C78.1027 44.5934 78.9739 44.2982 79.6762 43.6082C81.6732 41.8188 83.1121 39.8012 84.0859 37.5933C85.0598 35.3854 83.9412 34.3849 81.7579 31.9714L51.3453 19.5302Z" fill="#DB5955"/>
<path d="M81.7648 31.9551C81.7648 31.9551 76.9023 28.121 66.7689 24.5193C62.976 23.1852 51.4503 19.5568 51.4503 19.5568C46.3751 17.9153 44.3247 20.1162 43.4686 23.6739C43.2534 25.3227 43.6892 27.2377 45.0302 28.2204C57.2147 37.8714 65.5908 38.8004 80.3023 40.9094C81.0266 40.9885 82.5095 40.5095 83.0257 39.7437C83.4123 39.0334 83.7988 38.323 84.1854 37.6127C85.0661 35.3677 83.8522 33.7858 81.7648 31.9551Z" fill="#E18668"/>
<path d="M47.2896 33.0259L46.1889 29.1911C47.5674 24.8429 53.3171 21.5202 55.1419 20.739C54.2637 20.4886 53.4224 20.1442 52.8247 20.0086C45.3806 24.0567 44.821 27.976 44.7841 28.0701L45.3239 31.6753C45.9045 32.1313 46.6155 32.5316 47.2896 33.0259Z" fill="#F7E4D8"/>
<path d="M81.754 31.881C81.754 31.881 81.6603 31.8427 81.5099 31.672C76.2451 37.0581 75.8296 40.0568 75.7557 40.2452L76.654 44.3276C76.8413 44.4042 76.9719 44.3484 77.1592 44.425C77.5708 44.4841 78.0193 44.449 78.3742 44.3756L77.5326 40.4256C78.3056 37.9008 80.6854 35.1591 82.8436 32.9823C82.4861 32.5083 82.1853 32.1667 81.754 31.881Z" fill="#F7E4D8"/>
<path d="M61.366 40.5047L60.5453 36.7835C62.0551 32.3781 68.2285 27.1515 69.9952 25.6905C69.1533 25.3459 68.3115 25.0014 67.4328 24.7509C58.917 32.0765 58.2833 36.1852 58.2464 36.2794L58.7101 39.5268C59.5519 39.8714 60.4873 40.2543 61.366 40.5047Z" fill="#F7E4D8"/>
<path d="M52.6361 33.3414C54.0535 29.447 60.2234 24.77 63.107 23.2222C62.1357 22.9336 61.071 22.6068 60.0431 22.1859C50.7633 27.8814 50.3908 31.8763 50.2236 32.0262L50.6303 35.1395C51.5845 35.7486 52.4821 36.2252 53.3428 36.796L52.6361 33.3414Z" fill="#F7E4D8"/>
<path d="M69.1595 38.9806C70.3746 35.3274 74.7065 31.2022 77.3106 28.9913C76.599 28.5908 75.8873 28.1904 75.0452 27.8458C67.3462 34.7434 66.8796 38.7029 66.8058 38.8912L67.5702 42.4806C68.3556 42.6928 69.2346 42.9433 70.1506 43.0997L69.1595 38.9806Z" fill="#F7E4D8"/>
<path d="M42.7745 51.9577C33.9061 50.0672 27.1139 47.2874 19.0483 42.2475C11.6904 37.6058 10.8155 29.0962 17.2715 23.3694C17.3082 23.2757 17.4379 23.2201 17.4379 23.2201C18.2703 22.4739 19.328 22.2547 20.3882 22.5799C32.4397 25.9905 43.8841 30.6742 54.9074 36.7073C55.8942 37.2198 56.4745 38.2182 56.6093 39.2515C56.5726 39.3452 56.6289 39.4769 56.6289 39.4769C57.6532 48.1564 51.2339 53.7895 42.7745 51.9577Z" fill="#EADFD1"/>
<path d="M56.8183 39.4998C56.855 39.4064 56.7987 39.275 56.7987 39.275C56.7008 38.1506 56.0843 37.2481 55.0985 36.7368C44.0862 30.718 32.6532 26.0453 20.6138 22.6427C20.335 22.5288 19.9265 22.4702 19.5743 22.5432C19.5376 22.6366 19.5376 22.6366 19.5009 22.73C19.2662 24.1522 19.1808 25.7437 19.3179 27.3178C19.3596 28.3107 19.8831 29.1752 20.6463 29.704C32.1138 37.8606 40.0146 41.0897 53.3649 43.0763C54.2748 43.2313 55.1456 42.9366 55.8475 42.2476C56.1801 41.9498 56.5495 41.5586 56.8821 41.2608C56.8233 40.5862 56.8208 40.043 56.8183 39.4998Z" fill="#D1C3B4"/>
<path d="M26.4079 16.3862C22.8737 14.9404 18.892 17.1124 18.371 20.9172C18.1362 22.3415 18.0507 23.9354 18.1879 25.5119C18.2296 26.5063 18.7534 27.3721 19.5171 27.9017C30.9913 36.0706 38.8967 39.3045 52.2548 41.2941C53.1653 41.4493 54.0365 41.1542 54.7389 40.4641C56.7358 38.6748 58.1747 36.6571 59.1485 34.4493C60.1224 32.2414 59.0038 31.2408 56.8205 28.8274L26.4079 16.3862Z" fill="#DB5955"/>
<path d="M56.8274 28.811C56.8274 28.811 51.9649 24.9769 41.8316 21.3753C38.0386 20.0411 26.5129 16.4128 26.5129 16.4128C21.4377 14.7713 19.3873 16.9721 18.5312 20.5298C18.316 22.1787 18.7518 24.0937 20.0928 25.0764C32.2773 34.7274 40.6534 35.6564 55.365 37.7654C56.0893 37.8445 57.5721 37.3654 58.0883 36.5996C58.4749 35.8893 58.8615 35.179 59.248 34.4687C60.1287 32.2237 58.9149 30.6417 56.8274 28.811Z" fill="#E18668"/>
<path d="M22.3521 29.8819L21.2514 26.047C22.6299 21.6989 28.3796 18.3762 30.2044 17.5949C29.3262 17.3446 28.4849 17.0001 27.8872 16.8646C20.4431 20.9127 19.8835 24.832 19.8466 24.926L20.3864 28.5312C20.967 28.9873 21.678 29.3875 22.3521 29.8819Z" fill="#F7E4D8"/>
<path d="M56.8165 28.737C56.8165 28.737 56.7228 28.6987 56.5724 28.5279C51.3076 33.914 50.8921 36.9128 50.8182 37.1011L51.7165 41.1836C51.9038 41.2602 52.0344 41.2043 52.2218 41.281C52.6333 41.34 53.0819 41.3049 53.4367 41.2315L52.5951 37.2815C53.3681 34.7568 55.7479 32.015 57.9061 29.8383C57.5486 29.3643 57.2478 29.0227 56.8165 28.737Z" fill="#F7E4D8"/>
<path d="M36.4285 37.3607L35.6078 33.6394C37.1176 29.2341 43.291 24.0074 45.0577 22.5465C44.2159 22.2019 43.374 21.8573 42.4953 21.6069C33.9795 28.9325 33.3458 33.0412 33.3089 33.1353L33.7726 36.3828C34.6144 36.7274 35.4563 37.0719 36.4285 37.3607Z" fill="#F7E4D8"/>
<path d="M27.6986 30.1974C29.116 26.3029 35.2859 21.626 38.1695 20.0782C37.1982 19.7896 36.1335 19.4627 35.1056 19.0418C25.8258 24.7373 25.4533 28.7323 25.2861 28.8821L25.6928 31.9955C26.647 32.6045 27.5446 33.0812 28.4053 33.652L27.6986 30.1974Z" fill="#F7E4D8"/>
<path d="M44.2221 35.8366C45.4372 32.1834 49.769 28.0582 52.3731 25.8473C51.6615 25.4468 50.9498 25.0463 50.1077 24.7017C42.4087 31.5994 41.9421 35.5589 41.8683 35.7471L42.6327 39.3366C43.4181 39.5488 44.2971 39.7993 45.2131 39.9557L44.2221 35.8366Z" fill="#F7E4D8"/>
<path d="M87.3136 35.8135L78.597 58.0659C77.7143 60.3193 83.2239 64.7551 90.8672 67.8857C98.5105 71.0164 105.454 71.7904 106.374 69.4431L115.091 47.1906L87.3136 35.8135Z" fill="#332C5E"/>
<path d="M82.2137 63.2206C83.3226 64.0015 84.5253 64.8206 85.9897 65.5279L96.246 39.4255L92.2109 37.7778L82.2137 63.2206Z" fill="#474C52"/>
<path d="M98.9829 47.2481C106.228 50.2132 113.12 50.0176 114.377 46.8112C115.634 43.6048 110.78 38.6018 103.535 35.6368C96.2899 32.6717 89.3976 32.8674 88.1406 36.0738C86.8835 39.2802 91.7378 44.2831 98.9829 47.2481Z" fill="#F2F8FB"/>
<path d="M100.562 43.2197C103.438 44.3962 106.082 44.5541 106.467 43.5725C106.852 42.5908 104.832 40.8413 101.956 39.6648C99.0799 38.4884 96.4361 38.3305 96.0511 39.3121C95.6661 40.2938 97.6855 42.0433 100.562 43.2197Z" fill="#DD7260"/>
<path d="M103.02 36.9485C110.464 39.9955 114.182 44.5593 113.448 46.4317C112.751 48.2105 106.941 48.983 99.4976 45.936C92.0539 42.889 88.336 38.3252 89.0699 36.4528C89.8038 34.5804 95.5766 33.9015 103.02 36.9485ZM103.681 35.2634C96.051 32.1402 88.7527 32.3033 87.395 35.7673C86.0373 39.2312 91.2073 44.498 98.8371 47.6211C106.467 50.7443 113.765 50.5812 115.123 47.1173C116.481 43.6533 111.404 38.4246 103.681 35.2634Z" fill="#332C5E"/>
<path d="M106.559 72.3677C98.7584 75.7227 88.6555 69.5183 88.6555 69.5183C88.6555 69.5183 91.1639 57.8899 98.9647 54.5349C106.766 51.18 116.868 57.3844 116.868 57.3844C116.868 57.3844 114.36 69.0128 106.559 72.3677Z" fill="#579485"/>
<path d="M68.2054 35.917L59.4888 58.1694C58.6061 60.4229 64.1157 64.8586 71.759 67.9893C79.4024 71.1199 86.3463 71.8939 87.2658 69.5466L95.9824 47.2941L68.2054 35.917Z" fill="#332C5E"/>
<path d="M95.362 46.9527C94.1139 50.1365 87.2246 50.3596 79.9676 47.3897C72.7107 44.4198 67.8772 39.3991 69.1253 36.2153C70.3735 33.0316 77.2628 32.8085 84.5197 35.7784C91.7767 38.7483 96.6102 43.769 95.362 46.9527Z" fill="#F2F8FB"/>
<path d="M87.4514 43.7141C87.0845 44.6495 84.4293 44.5405 81.5464 43.3613C78.6636 42.1821 76.6689 40.3892 77.0358 39.4537C77.4395 38.4247 80.0579 38.6272 82.9408 39.8064C85.7307 40.9476 87.8184 42.7786 87.4514 43.7141Z" fill="#DD7260"/>
<path d="M83.8749 37.1468C91.3186 40.1938 95.0365 44.7575 94.3026 46.6299C93.5687 48.5023 87.7959 49.1812 80.3522 46.1342C72.9085 43.0872 69.1906 38.5235 69.9245 36.6511C70.6584 34.7787 76.4312 34.0998 83.8749 37.1468ZM84.5354 35.4616C76.9056 32.3385 69.6074 32.5016 68.2497 35.9655C66.8919 39.4294 72.0619 44.6962 79.6917 47.8194C87.3215 50.9425 94.6198 50.7794 95.9775 47.3155C97.3352 43.8516 92.2583 38.6229 84.5354 35.4616Z" fill="#332C5E"/>
<path d="M91.471 82.512L15.6759 51.5935C7.59484 48.297 3.61136 38.9673 6.81128 30.8315L112.051 73.7613C108.722 81.9527 99.5521 85.8085 91.471 82.512Z" fill="white"/>
</svg>
